<mxfile host="app.diagrams.net" modified="2024-02-23T00:56:01.076Z" agent="Mozilla/5.0 (Linux; Android 10; K) AppleWebKit/537.36 (KHTML, like Gecko) Chrome/121.0.0.0 Mobile Safari/537.36" version="23.1.6" etag="3OFpfRQfjq8rd4-3f5OH" type="github">
  <diagram name="PÃ¡gina-1" id="B5-XIYN_9mTlwx6PZA68">
    <mxGraphModel>
      <root>
        <mxCell id="0" />
        <mxCell id="1" parent="0" />
      </root>
    </mxGraphModel>
  </diagram>
</mxfile>
